<?xml version="1.0" encoding="UTF-8"?>
<svg width="24" height="24" viewBox="0 0 24 24" fill="none" xmlns="http://www.w3.org/2000/svg">
  <!-- Gradient definition -->
  <defs>
    <linearGradient id="gradient" x1="0" y1="0" x2="24" y2="24">
      <stop offset="0%" style="stop-color:#2196F3"/>
      <stop offset="100%" style="stop-color:#1976D2"/>
    </linearGradient>
  </defs>
  
  <!-- Background circle -->
  <circle cx="12" cy="12" r="11" fill="url(#gradient)" />
  
  <!-- Dollar sign -->
  <path d="M13.5 7.5V6H10.5V7.5M13.5 7.5C13.5 9 12 9.75 12 9.75M13.5 7.5H15M10.5 16.5V18H13.5V16.5M10.5 16.5C10.5 15 12 14.25 12 14.25M10.5 16.5H9M12 9.75C10.5 10.5 10.5 12 10.5 12H15C15 12 15 13.5 12 14.25M12 9.75V14.25" stroke="white" stroke-width="1.8" stroke-linecap="round" stroke-linejoin="round"/>
  
  <!-- Split line -->
  <path d="M6 12C6 12 9 11 12 12C15 13 18 12 18 12" stroke="white" stroke-width="1.5" stroke-linecap="round" opacity="0.8"/>
</svg> 